<?xml version="1.0" encoding="UTF-8"?>
<svg enable-background="new 0 0 302.25 237.75" viewBox="0 0 302.25 237.75" xmlns="http://www.w3.org/2000/svg">
 <path d="m117,3.75-3-.75h-9l-10.5,1.5-6.75.75-6.75,1.5-6,1.5-7.5,2.25-6.75,3-7.5,3-6.75,3-13.5,9-6,5.25-5.25,6-3,5.25-3.75,6.75-2.25,8.25-3,8.25-3,18-.75,9 .75,8.25 .75,7.5 1.5,7.5 2.25,8.25 3,8.25 3,8.25 3.75,7.5 4.5,7.5 4.5,6.75 3,3.75 3.75,4.5 9.75,9.75 6,4.5 6.75,4.5 6.75,5.25 15,9 7.5,3.75 7.5,4.5 7.5,3 6.75,3 7.5,3 6.75,2.25 12,1.5 6.75,1.5h6.75l7.5.75h23.25l7.5-.75h7.5l7.5-.75 6.75-.75 12-1.5 4.5-1.5 4.5-.75 3-.75 8.25-3.75 8.25-4.5 7.5-6 8.25-8.25 6.75-9 6.75-11.25 7.5-13.5 6.75-15 3.75-12.75 2.25-12v-11.25l-.75-9.75-1.5-9-2.25-7.5-2.25-6.75-3-4.5-6-9.75-6.75-9-6.75-6.75-6.75-5.25-8.25-4.5-7.5-4.5-9.75-4.5-10.5-4.5-6-3-27-9-7.5-2.25-6.75-1.5-6.75-2.25-6.75-1.5-6-1.5-6-.75-6-1.5-5.25-.75-3.75-.75-4.5-.75-3-.75h-12.75z" fill="#c49a6b" fill-rule="evenodd"/>
 <path d="m117,3.75-4.5.75-5.25.75-6,1.5-6,.75-6.75,1.5-6,1.5-6.75,2.25-6,1.5-6.75,3-6,2.25-5.25,3-6,3-5.25,3.75-9,7.5-3,4.5-4.5,8.25-3,7.5-2.25,7.5-1.5,7.5-1.5,6.75v7.5l-.75,8.25v15l.75,7.5 .75,8.25 1.5,8.25 4.5,16.5 3,7.5 4.5,7.5 3,3.75 3.75,4.5 9.75,9.75 6,4.5 6.75,4.5 6.75,5.25 15,9 7.5,3.75 7.5,4.5 7.5,3 6.75,3 7.5,3 6.75,2.25 12,1.5 6.75,1.5h6.75l7.5.75h23.25l7.5-.75h7.5l7.5-.75 6.75-.75 12-1.5 4.5-1.5 4.5-.75 3-.75 8.25-3.75 8.25-4.5 7.5-6 8.25-8.25 6.75-9 6.75-11.25 7.5-13.5 6.75-15 3.75-12.75 2.25-12v-11.25l-.75-9.75-1.5-9-2.25-7.5-2.25-6.75-3-4.5-6-9.75-6.75-9-6.75-6.75-6.75-5.25-8.25-4.5-7.5-4.5-9.75-4.5-10.5-4.5-6-3-27-9-7.5-2.25-6.75-1.5-6.75-2.25-6.75-1.5-6-1.5-6-.75-6-1.5-5.25-.75-3.75-.75-4.5-.75-3-.75h-12.75z" fill="#a97c50" fill-rule="evenodd"/>
 <path d="m84,21.75-13.5,3-7.5,2.25-7.5,3.75-6.75,3.75-6.75,6-5.25,8.25-4.5,9.75-3.75,13.5 .75,9 2.25,6 5.25,5.25 .75,2.25 2.25,1.5 .75,2.25 2.25,2.25 3,2.25 3,3 3.75,3 5.25,3.75 12,7.5 6,4.5 13.5,7.5 7.5,3.75 6.75,3.75 6.75,3 6.75,3 6,2.25 5.25,2.25 10.5,3 5.25.75 7.5.75 6.75,1.5 15,1.5 16.5,1.5h24l8.25-.75 6.75-.75 13.5-3 4.5-1.5 9-5.25 8.25-7.5 5.25-7.5 4.5-8.25 3-8.25 2.25-6.75 .75-6v-3.75l-.75-3.75-3-5.25-3.75-6.75-5.25-6.75-6-6.75-5.25-6.75-4.5-4.5-4.5-2.25-2.25-1.5-3-1.5-3.75-1.5-3.75-2.25-4.5-2.25-4.5-3-6-3-5.25-2.25-5.25-3-12-6-6-2.25-5.25-2.25-6-1.5-5.25-2.25-5.25-.75-5.25-1.5h-5.25l-6-.75-5.25-.75h-35.25l-5.25.75h-5.25l-5.25.75h-4.5l-4.5,1.5z" fill="#bfd73b" fill-rule="evenodd"/>
 <path d="m36,92.25 3,2.25 7.5,6 5.25,3 5.25,3.75 6,3.75 6.75,4.5 6,3.75 20.25,11.25 18,9 15.75,4.5 6,1.5 6.75.75 6.75,1.5 15,1.5 16.5,1.5h24.75l7.5-.75 7.5-.75 6-1.5 6.75-.75 5.25-2.25 9-5.25 7.5-6.75 6-8.25 4.5-8.25 3-8.25 2.25-6.75 .75-6v-3.75l-.75-3-1.5-3.75-2.25-3.75-6-9-3.75-5.25-5.25-4.5-5.25-5.25-2.25-1.5-3-1.5-3.75-1.5-3.75-2.25-4.5-2.25-4.5-3-6-3-5.25-2.25-5.25-3-12-6-6-2.25-5.25-2.25-6-1.5-5.25-2.25-5.25-.75-5.25-1.5h-5.25l-6-.75-5.25-.75h-35.25l-5.25.75h-5.25l-5.25.75h-4.5l-4.5,1.5h-3l-13.5,3-7.5,2.25-7.5,3.75-6.75,3.75-6.75,6-5.25,8.25-4.5,9.75-3.75,13.5v9l3,6z" fill="#e1edc2" fill-rule="evenodd"/>
 <path d="m39,74.25 3,.75h7.5l4.5.75 6,.75 5.25.75 24,3 5.25.75 9,1.5 3.75.75 2.25.75h.75l-3,.75h-18l-12-.75-11.25-.75-10.5-1.5h-7.5l-4.5.75 3,7.5 3,5.25 3.75,3.75 2.25,3 6.75-1.5 9-1.5 9.75-1.5 9.75-2.25 9-.75 8.25-1.5 5.25-.75h2.25l-3.75,2.25-6,2.25-15,4.5-7.5,3-7.5,2.25-4.5,1.5-3,.75 4.5,3.75 7.5,6 3.75,2.25 3,1.5 3,.75 2.25,1.5h1.5l3.75-3 4.5-3 6-3.75 5.25-3.75 6-3 3.75-2.25 4.5-2.25-1.5,3.75-1.5,3-9.75,9.75-3.75,3-3,3.75-1.5,3 1.5,1.5 3,2.25 11.25,4.5 3.75.75 3,.75h3l3-8.25 3.75-9 2.25-8.25 1.5-3.75 1.5,4.5 .75,8.25-.75,9-.75,7.5 2.25,1.5 2.25.75 3,.75 3.75,1.5h11.25l-1.5-9-1.5-9.75-2.25-7.5-3-4.5 3,1.5 3,3.75 2.25,3.75 2.25,4.5 2.25,5.25 3,9 1.5,3.75 3,1.5 3,.75 3.75.75h3.75l3.75-.75h3.75l4.5-2.25-3-4.5-3.75-6-9-10.5-3.75-5.25-9-9 4.5,1.5 5.25,3 5.25,5.25 6,5.25 5.25,6 4.5,5.25 3,4.5 3,3.75h5.25l5.25.75h3.75l3.75-.75 3-.75 4.5-3 2.25-2.25-5.25-3-7.5-4.5-8.25-5.25-18-12-7.5-5.25-6-3.75-4.5-2.25 7.5,2.25 9,3 9.75,5.25 10.5,5.25 9,5.25 9,4.5 6,3.75 3.75,1.5 6-3 2.25-1.5 2.25-3 1.5-1.5 .75-3 .75-2.25v-2.25l-3-.75-3.75-1.5-4.5-1.5-10.5-3-12-4.5-6-1.5-12-4.5-6-1.5-4.5-1.5-4.5-.75-3.75-1.5-2.25-.75h-1.5 9l5.25.75 5.25,1.5 6,.75 6,1.5 6.75,1.5 18,4.5 4.5,1.5 5.25,1.5 7.5,1.5h3.75l3-5.25 1.5-5.25-.75-5.25-2.25-6h-21l-6-.75-6.75-.75h-6l-6.75-.75h-12l-5.25-.75h-9l-2.25-.75h-2.25l6-1.5 8.25-.75 10.5-.75 22.5-1.5 10.5-.75h6.75l3-1.5-.75-3-3-4.5-2.25-3-2.25-2.25-3-1.5-4.5-3-5.25,1.5-15,4.5-8.25,2.25-8.25,3-6.75,3-6,2.25-3,.75 4.5-3 20.25-11.25 6-3.75 5.25-2.25 3.75-2.25 2.25-1.5-2.25-2.25-4.5-3-6-3-7.5-1.5-3-.75-3,3.75-3,4.5-9,10.5-3.75,4.5-9,9 1.5-3.75 6-10.5 7.5-10.5 3-4.5 1.5-3.75v-2.25l-3-1.5-2.25-.75-2.25-1.5-6-1.5-2.25-.75h-5.25l-3,8.25-2.25,10.5-2.25,9-3,6.75-.75-8.25 .75-11.25 .75-10.5v-6l-4.5-1.5-7.5-1.5-4.5-.75h-6l-3-.75h-1.5l3,10.5 3.75,11.25 3.75,9.75 1.5,6-3.75-3.75-3-4.5-2.25-5.25-2.25-6-3-10.5-2.25-4.5-1.5-1.5-4.5-.75-3.75-.75h-3l-2.25-.75h-3l-1.5.75h-2.25l-2.25,1.5 2.25,3.75 3,4.5 3.75,6 3.75,4.5 3.75,5.25 3,5.25 3,3.75 1.5,2.25-3.75-2.25-3.75-3.75-9-10.5-4.5-6-3.75-4.5-4.5-3-3-2.25h-3l-3,.75h-5.25l-9,3 4.5,3 12,9 6.75,6 6.75,5.25 6,4.5 4.5,3.75 3,2.25-4.5-2.25-6-3.75-7.5-5.25-8.25-5.25-7.5-5.25-7.5-4.5-5.25-4.5-3.75-1.5-6,1.5-3,1.5-2.25.75-3,1.5-2.25,1.5-2.25,2.25-1.5,2.25 5.25,1.5 8.25,3 9,3.75 9.75,4.5 9.75,3.75 8.25,4.5 6.75,3 3,1.5-4.5-.75-7.5-2.25-9.75-3-22.5-6-9.75-3-7.5-2.25-3.75-.75-3,5.25-3,6-2.25,5.25z" fill="#bfd73b" fill-rule="evenodd"/>
 <path d="m114,63.75 2.25-.75 3.75-.75 13.5-4.5 4.5-.75 3-.75 2.25-.75 3.75,2.25 13.5,6.75 16.5,9 6.75,3.75 5.25,3.75 3,1.5-1.5,2.25-2.25,3.75-1.5,4.5-6,9-2.25,3.75-2.25,3-.75,2.25-3.75,1.5-6,1.5-6.75,1.5-7.5.75-6.75.75-6,.75h-6.75l-3.75-3.75-4.5-5.25-4.5-7.5-10.5-15-4.5-7.5-3-5.25-1.5-2.25 3-2.25 3.75-1.5 2.25-1.5 1.5-.75 2.25-.75 .75-.75z" fill="#e1edc2" fill-rule="evenodd"/>
 <path d="m144,58.5v-9.75l-.75-3v-.75l-.75-.75-1.5-.75h-.75l-.75.75-1.5.75v3.75l.75,3.75 1.5,4.5 2.25,2.25v.75h.75l.75-.75z" fill="#010101" fill-rule="evenodd"/>
 <path d="m155.25,62.25 1.5-1.5 .75-3 .75-2.25 1.5-3 .75-.75v-1.5l-3-1.5h-1.5l-1.5.75v2.25l-.75,2.25-.75,3v2.25l.75,3v.75h1.5z" fill="#010101" fill-rule="evenodd"/>
 <path d="m167.25,66 1.5-1.5 1.5-2.25 1.5-1.5 .75-2.25 .75-.75v-.75l-.75-1.5-.75-.75h-2.25l-.75.75-1.5,2.25-.75,2.25-.75,3-.75,2.25v.75h.75v.75h.75z" fill="#010101" fill-rule="evenodd"/>
 <path d="m177.75,58.5-2.25,3-2.25,3.75-.75,3v1.5l2.25-.75 4.5-4.5 3-1.5v-3.75l-1.5-1.5h-2.25z" fill="#010101" fill-rule="evenodd"/>
 <path d="m189.75,67.5 1.5-1.5v-1.5l-.75-.75-3-1.5-.75.75-2.25,3-2.25,2.25-2.25,3v1.5l2.25-.75 3-1.5 3-2.25z" fill="#010101" fill-rule="evenodd"/>
 <path d="m188.25,77.25 2.25-1.5 3-.75 2.25-.75 3-1.5v-.75l.75-.75v-1.5l-.75-.75-1.5-.75h-1.5l-.75.75-4.5,3-3.75,3.75v1.5z" fill="#010101" fill-rule="evenodd"/>
 <path d="m189.75,84 3,.75h9l.75-.75h1.5v-3.75l-1.5-.75-.75-.75h-3l-3,.75-4.5,1.5-2.25,1.5-.75.75 .75.75z" fill="#010101" fill-rule="evenodd"/>
 <path d="m191.25,98.25 1.5.75h.75l.75-.75h.75v-3l-.75-.75h-.75l-2.25-1.5-1.5-.75-3-.75-2.25-.75v-.75h-.75l-1.5,1.5 1.5,2.25 3,2.25z" fill="#010101" fill-rule="evenodd"/>
 <path d="m184.5,107.25h3v-.75l.75-1.5v-1.5l-.75-.75v-.75l-4.5-1.5-2.25-1.5h-4.5v2.25h.75l1.5,1.5 2.25,1.5 1.5,1.5z" fill="#010101" fill-rule="evenodd"/>
 <path d="m172.5,111 .75,1.5 3,3.75 3,3 3.75.75 1.5-1.5v-3l-2.25-1.5-3-3-3.75-1.5-.75-1.5h-2.25z" fill="#010101" fill-rule="evenodd"/>
 <path d="m166.5,122.25 .75,2.25 1.5.75h2.25l.75-2.25-1.5-3.75-3-6h-2.25l-.75.75 1.5,6z" fill="#010101" fill-rule="evenodd"/>
 <path d="m153.75,114v7.5l1.5,3h2.25v-.75h.75l.75-1.5-.75-1.5v-3l-1.5-3.75-1.5-.75h-.75z" fill="#010101" fill-rule="evenodd"/>
 <path d="m140.25,123v.75l.75.75v.75h2.25l2.25-1.5v-3.75l-1.5-5.25v-1.5h-.75l-.75.75v.75l-.75.75-.75,2.25v2.25z" fill="#010101" fill-rule="evenodd"/>
 <path d="m131.25,115.5-1.5,1.5-3,4.5-.75,3v1.5l1.5.75 .75.75h2.25l1.5-3.75 1.5-7.5v-.75z" fill="#010101" fill-rule="evenodd"/>
 <path d="m123.75,107.25-1.5.75-2.25,1.5-3,3v.75l.75.75 .75,1.5h1.5l3-2.25 2.25-2.25 1.5-2.25v-.75l-.75-.75z" fill="#010101" fill-rule="evenodd"/>
 <path d="m113.25,102-.75.75v.75l-.75.75 .75.75 2.25,1.5 3.75-2.25 2.25-2.25 1.5-.75-2.25-1.5z" fill="#010101" fill-rule="evenodd"/>
 <path d="m109.5,97.5 1.5-1.5 4.5-1.5 .75-1.5-2.25-.75h-3.75l-2.25.75h-.75v3.75l.75.75z" fill="#010101" fill-rule="evenodd"/>
 <path d="m106.5,87-2.25-.75-2.25.75h-3l-2.25,1.5h-.75v3.75h.75l1.5.75h.75l2.25-1.5 3-1.5 2.25-1.5z" fill="#010101" fill-rule="evenodd"/>
 <path d="m98.25,78-1.5.75-.75.75v1.5l.75.75v1.5h4.5l4.5-2.25 .75-.75-1.5-1.5-1.5-.75z" fill="#010101" fill-rule="evenodd"/>
 <path d="m103.5,72.75-2.25-1.5-3-2.25-6-1.5h-1.5l-2.25,2.25v.75l2.25,2.25h1.5l1.5.75h2.25l1.5.75h3.75l1.5-.75z" fill="#010101" fill-rule="evenodd"/>
 <path d="m104.25,55.5h-2.25l-.75.75-1.5.75v2.25l1.5,1.5h.75l.75,1.5 2.25,1.5 2.25,2.25 3,.75 .75-1.5-1.5-3-3-3.75z" fill="#010101" fill-rule="evenodd"/>
 <path d="m117,55.5-1.5-1.5h-1.5l-1.5,1.5v2.25l.75.75 1.5,2.25 2.25,3 2.25,2.25h1.5l.75-.75-1.5-1.5v-3l-1.5-2.25z" fill="#010101" fill-rule="evenodd"/>
 <path d="m126.75,55.5h-.75l-.75-.75h-2.25l-.75.75v2.25l.75,1.5 1.5,2.25 1.5,1.5 1.5.75h1.5l-.75-2.25z" fill="#010101" fill-rule="evenodd"/>
 <path d="m135.75,54.75v-1.5l-.75-1.5-1.5-.75-3,.75-1.5.75v1.5l1.5,1.5 .75,2.25 1.5,2.25 3,3 1.5-.75v-2.25l-.75-3z" fill="#010101" fill-rule="evenodd"/>
 <path d="m111,75.75 1.5-.75 3-.75 3.75-2.25 5.25-2.25 6-1.5 4.5-2.25 5.25-.75 3-.75 4.5.75 6,1.5 18,9 5.25,2.25 3.75,2.25 .75.75-.75,3-2.25,4.5-3,3.75-6,9-2.25,3-1.5,2.25-1.5.75-3,.75-4.5.75h-4.5-5.25-9l-2.25-.75h-.75l-3-2.25-3-3.75-7.5-9-4.5-4.5-3-5.25-2.25-4.5z" fill="#fffac0" fill-rule="evenodd"/>
 <path d="m218.25,39-5.25-3.75-6-3.75-8.25-3-9-3.75-9.75-3-10.5-2.25-11.25-3-24-3h-36.75l-22.5,4.5-10.5,3.75-9.75,4.5-6,3.75-5.25,3.75-4.5,3.75-4.5,4.5-3.75,5.25-2.25,5.25-2.25,6.75-.75,6.75 .75.75 .75,1.5 .75.75 .75.75h2.25l.75-.75 1.5-.75v-1.5l3-8.25 3.75-6.75 4.5-6 5.25-5.25 13.5-7.5 7.5-3.75 7.5-3 8.25-1.5 7.5-2.25 7.5-.75 6.75-.75 7.5-.75h15.75l5.25.75 6,.75 5.25.75h6l5.25.75 5.25,1.5 6,.75 10.5,1.5 5.25,1.5 5.25.75 5.25,1.5 6,2.25 5.25,1.5z" fill="#010101" fill-rule="evenodd"/>
 <path d="m30.75,78.75v8.25l3,8.25 6,8.25 8.25,6.75 9,7.5 9.75,6.75 9,6 8.25,5.25 8.25,4.5 9,5.25 9,3.75 9.75,3.75 19.5,6 9.75,1.5 10.5,2.25 9.75.75 9.75,1.5h9l9.75.75h8.25l7.5-.75 8.25-.75 6.75-.75 8.25-2.25 9-3.75 8.25-6 7.5-6.75 7.5-9 6-10.5 5.25-12 3.75-12.75v-4.5l-2.25-5.25-3.75-6.75-5.25-8.25-6.75-7.5-7.5-6.75-9-6-10.5-3.75h-2.25l-.75.75v1.5l.75.75 6,3.75 5.25,3.75 6,4.5 9,9 4.5,5.25 3,5.25 3,6.75 1.5,6-1.5,8.25-3,9-5.25,9.75-6.75,9.75-9,8.25-9.75,6.75-12.75,3.75-6.75,1.5-6.75.75-7.5.75h-24.75l-18-1.5-18-4.5-9.75-1.5-9.75-3-9.75-3.75-9-4.5-19.5-9-7.5-4.5-8.25-5.25-18-12-8.25-6.75-6.75-6.75-5.25-7.5z" fill="#bfd73b" fill-rule="evenodd"/>
 <path d="m33.75,27.75-8.25,2.25-6.75,6-5.25,9-5.25,9.75-6,22.5-1.5,9-.75,6.75 1.5,12 2.25,12.75 3.75,11.25 3.75,10.5 6,11.25 6.75,9.75 6.75,10.5 8.25,9 18,16.5 9.75,7.5 10.5,6.75 10.5,6 10.5,5.25 12,4.5 11.25,3.75 6,1.5 6,.75 6.75,1.5 7.5,1.5 22.5,2.25h23.25l7.5-1.5 6.75-.75 6.75-2.25 6-2.25 6-3 5.25-3.75 12-9 10.5-10.5 9-11.25 8.25-12 6.75-12.75 6-13.5 3.75-13.5 2.25-14.25-2.25.75-1.5.75-1.5,3-7.5,13.5-3.75,7.5-3,6.75-7.5,13.5-4.5,6-7.5,11.25-4.5,4.5-3,4.5-4.5,3.75-3.75,3.75-4.5,3.75-5.25,3-5.25,2.25-10.5,6-6,2.25-5.25,1.5-13.5,1.5-6,.75-6.75.75h-6l-20.25-2.25-6-.75-6-1.5-5.25-.75-6-1.5-21-7.5-10.5-4.5-9.75-4.5-9-6-9-6.75-8.25-6.75-7.5-7.5-7.5-8.25-6.75-8.25-5.25-9.75-5.25-10.5-4.5-10.5-4.5-12-3-12-1.5-12.75v-9.75l1.5-9.75 2.25-9.75 3.75-10.5 3.75-9 4.5-7.5 4.5-6.75z" fill="#010101" fill-rule="evenodd"/>
 <path d="m115.5,6.75h-8.25l-15,1.5-7.5,1.5-6,1.5-6.75,1.5-5.25,1.5-5.25,2.25-5.25,1.5-7.5,3.75-3.75,1.5-2.25,1.5-2.25.75-1.5.75h-.75l-1.5.75-.75-1.5v-.75l1.5-2.25 5.25-3.75 6-4.5 6.75-3 6-2.25 6.75-2.25 6.75-1.5 6-1.5 6-.75 6.75-.75 5.25-.75 6-.75h5.25l4.5-.75h27.75l8.25,1.5 18,3 18,4.5 8.25,2.25 16.5,6 15,6 6,3 6.75,3 4.5,3 4.5,2.25 8.25,5.25 9.75,6.75 9.75,7.5 9,9 8.25,10.5 6,11.25 3,12.75-1.5,12.75-.75,1.5-2.25.75h-5.25l-1.5-3v-12l-3-10.5-6-9.75-6.75-9-7.5-8.25-9-6.75-7.5-6-7.5-5.25-3-1.5-3.75-3-5.25-1.5-6-3-6.75-3.75-7.5-2.25-16.5-6-9.75-3-9.75-2.25-9.75-3-9.75-2.25-21-3-9.75-.75z" fill="#010101" fill-rule="evenodd"/>
</svg>
